<svg width="156" height="51" viewBox="0 0 156 51" fill="none" xmlns="http://www.w3.org/2000/svg">
<path d="M12.9907 50.5243C13.0862 50.4603 13.473 50.612 13.6398 50.5842C13.4547 51.2561 12.6462 50.7568 12.9907 50.5243ZM29.8099 1.71131C29.6724 1.87801 29.5349 2.04471 29.3974 2.21141C29.7918 2.31664 30.3203 2.19157 30.6867 2.34664C30.7466 2.37269 30.5946 2.85377 30.7362 2.87431C30.8778 2.89471 30.8463 2.23879 31.0516 2.1673C31.2818 2.08911 32.3413 2.53946 32.7071 2.52604C34.0754 2.47303 35.4533 2.08956 36.8262 2.35331C35.4137 2.84773 36.8434 3.33266 37.2385 3.11977C37.3261 3.07051 37.3043 1.85086 38.7266 2.14893C39.6305 2.33808 38.8079 4.08716 40.3085 3.20398C39.1425 1.99147 40.2821 2.06971 41.1897 2.02338C41.3462 2.0152 42.6115 2.19042 43.1695 2.13284C43.3605 2.11284 43.6475 1.47209 43.9008 1.45371C44.0751 1.44154 44.2092 1.78998 44.4681 1.77055C45.6748 1.68413 46.8619 1.64941 48.072 1.7598C47.3758 3.40611 48.6312 2.45599 48.6884 2.53412C48.9793 2.97805 47.677 3.11323 48.1941 3.38876C48.914 3.3333 49.6339 3.27786 50.3537 3.22241C49.7614 3.02459 51.1274 1.83486 51.3837 2.37046C51.2631 0.920401 54.6741 3.61224 55.1876 3.12447C55.2945 3.02145 54.5857 2.30892 56.2216 2.62652C56.3987 2.66185 56.3346 3.09998 56.4271 3.05859C56.4826 3.0337 56.8101 1.64034 57.1733 2.40683C57.306 2.68658 56.4746 3.60564 58.3109 3.22666C57.5696 1.81534 60.8556 2.44357 61.4616 2.79458C61.3398 2.60512 61.2179 2.41565 61.0961 2.22619C61.6962 2.73556 61.8009 2.25345 61.9355 2.27883C62.478 2.38076 63.2261 2.86119 63.7305 2.8137C64.3209 2.759 64.3173 1.87838 65.0081 2.21654C64.8435 2.02328 64.6788 1.83002 64.5142 1.63676C64.9901 1.68053 65.466 1.72429 65.9419 1.76806C64.848 2.94075 66.1798 1.82216 66.2679 1.7965C66.4083 1.75318 66.2092 2.23169 66.4441 2.17076C66.4683 2.16083 66.4303 1.71166 66.7926 1.65887C67.5497 1.55013 67.4335 2.11592 67.7516 2.1075C67.7808 2.1044 67.6761 1.7002 68.225 1.60092C69.9695 1.28489 68.2183 1.91123 68.1517 1.96762C68.0641 2.04199 68.6737 3.73008 67.1864 3.1396C67.6858 3.32742 67.7406 4.0758 67.7968 4.09403C67.8466 4.10899 68.7089 3.99803 68.7563 3.97194C69.1789 3.715 68.8024 3.20574 68.8845 3.11353C68.9516 3.03919 69.9956 3.69932 70.2295 2.15886C70.7361 3.57515 69.9515 3.4501 69.1187 3.67359C68.9988 3.96565 69.9167 4.24305 69.9649 4.24197C71.1466 4.23185 70.4849 3.06843 70.7385 2.32042C70.8717 1.92905 71.3582 2.72255 70.9071 1.67845C71.9789 1.5611 71.3323 2.17192 71.4021 2.26126C71.5076 2.39251 71.8809 2.09006 71.9282 2.12973C71.9975 2.18846 71.7601 2.55247 72.0328 2.67841C72.0781 2.69669 72.5121 2.07014 71.9454 1.7756C72.7006 1.85947 72.6351 1.32798 72.8978 2.39823C73.4047 0.367052 73.2826 3.59448 73.488 3.7068C74.0342 4.00285 73.8661 2.41172 73.8944 2.33389C74.0892 1.8351 75.5993 2.37244 75.971 2.14061C75.8311 3.28829 74.7767 2.16073 74.5439 2.38469C73.768 3.12981 75.6479 2.95102 75.0901 4.39549C75.3253 3.99826 75.5605 3.60103 75.7956 3.20379C76.2373 4.12744 75.6216 4.53534 76.7923 4.18933C76.9791 3.38848 75.9639 4.32091 76.1647 3.68975C76.2831 3.31933 76.9627 3.23561 76.9748 3.04064C76.9867 2.80596 76.3739 3.0879 76.4684 2.72646C76.675 1.94647 78.9216 2.67345 77.2177 3.10928C77.6936 3.09294 77.9488 4.64013 78.3585 4.15494C78.6234 3.84001 77.1081 1.71059 79.3635 2.08847C79.4162 2.8195 78.4642 2.31017 78.4399 2.36598C78.4058 2.44722 78.5879 4.09643 78.6182 4.1777C78.725 4.44521 81.0201 3.54686 81.5115 4.3729C81.313 3.42032 83.249 4.19163 83.4574 3.89967C83.5129 3.81907 83.2999 3.23615 83.3594 3.17393C83.7304 2.80349 84.7471 3.84001 85.2158 3.86405C85.7403 3.89133 85.6706 3.38715 85.7 3.38792C85.9308 3.41459 85.7487 3.75785 85.8897 3.75599C86.1028 3.75299 87.5675 3.81363 87.6405 3.74179C87.6619 3.71941 87.4192 3.1445 87.7377 3.03312C87.7929 3.01382 87.7621 3.69747 88.7056 3.39624C89.8418 3.03393 87.9096 2.55139 88.3781 1.83268C89.1159 2.84707 89.0858 1.83739 89.2845 1.91541C89.3534 1.94386 89.8699 2.79919 90.4245 2.74133C90.0271 2.88324 89.6296 3.02514 89.2322 3.16704C89.6247 3.31509 90.384 3.12391 90.7077 3.29193C90.8656 3.37372 90.7404 4.07987 91.0821 4.05863C91.1547 4.05029 91.4316 2.33007 90.5409 3.10682C90.4654 2.4937 90.8941 2.89055 91.0907 2.71572C91.1205 2.68849 91.2318 1.66268 91.4884 2.29813C91.55 2.45448 90.909 5.44886 92.5974 3.27379C92.6518 3.20369 92.4588 2.83042 92.5119 2.75245C92.5482 2.69965 92.9837 2.84836 93.0313 2.79492C93.08 2.7376 92.8676 2.33012 92.9255 2.2493C93.2226 1.83287 93.6263 3.45183 93.0075 3.33222C93.2154 3.5313 93.4232 3.73039 93.631 3.92948C93.4022 2.70884 93.9532 3.58357 94.2388 3.54411C96.0689 3.29192 94.8373 2.50493 95.1496 2.09169C95.6519 1.4282 95.2784 3.52194 96.0263 2.88877C96.0955 2.82958 95.1809 1.94765 96.9588 2.43725C96.6971 2.4735 96.4354 2.50976 96.1737 2.54601C96.3322 3.72704 97.119 2.45891 97.18 2.44194C97.8759 2.27521 97.4075 2.70432 98.4384 2.08906C98.5305 2.03382 98.7337 2.32425 98.9304 2.17748C99.7457 1.5728 97.8471 1.8206 97.7921 1.3424C97.766 1.10808 99.8098 1.15411 99.8807 1.265C100.182 1.75664 98.9557 1.48828 99.193 2.09951C99.2795 2.31653 102.189 1.85114 102.775 2.08585C103.451 2.35901 103.765 3.95963 103.758 2.15894C103.959 3.92524 104.12 2.71823 104.206 2.72985C105.25 2.88683 105.252 2.90465 106.145 2.72971C106.342 2.69167 106.512 3.22689 106.581 3.13589C106.622 3.08094 106.542 2.50751 106.74 2.32916C107.015 2.08516 108.681 2.66486 108.807 2.98133C108.932 3.29779 108.106 3.12338 108.257 3.64405C108.855 3.69297 109.427 3.56026 110.029 3.61139C110.279 3.6342 110.153 4.0001 110.261 4.00667C110.307 4.01087 111.167 3.68388 111.13 3.54945C111.042 3.23685 108.38 3.46431 109.077 2.8209C109.212 2.69658 109.695 3.53483 109.613 2.5123C111.994 2.72908 114.376 2.94585 116.757 3.16263C115.395 3.93651 113.851 3.26199 112.42 3.34286C112.223 3.35297 111.559 3.25852 111.643 3.77507C112.862 3.90118 114.374 3.62213 115.546 3.95164C115.584 3.96255 115.449 4.42799 115.59 4.50071C115.853 4.63645 116.701 3.88176 116.846 4.07459C116.871 4.11958 116.389 4.7351 116.539 5.12336C116.925 6.11975 117.007 3.90697 117.333 3.93111C117.585 3.95071 119.285 5.00953 119.703 4.33107C120.147 3.60792 118.452 3.92085 118.574 3.33113C119.718 2.73198 120.884 3.35657 121.969 3.27593C121.988 3.27393 121.819 2.81347 122.06 2.74736C122.481 2.63231 122.596 3.28623 122.801 3.38965C123.023 3.49973 123.804 3.40093 123.91 3.63895C123.924 3.67016 123.77 4.32049 123.746 4.3389C123.407 4.60868 123.281 3.7667 123.25 3.75608C123.133 3.72487 123.021 4.04839 122.914 4.02984C122.739 3.99889 122.641 3.70087 122.41 3.67598C122.251 3.65769 122.408 4.2302 122.254 4.20495C122.198 4.19336 121.582 2.88772 121.534 4.2248C121.519 4.64638 126.492 5.15596 126.987 4.81571C126.56 4.6577 126.133 4.49969 125.705 4.34167C126.573 4.72741 127.606 3.65274 127.69 5.23241C130.899 5.34116 134.109 5.44992 137.319 5.55867C137.892 5.68964 137.585 6.70706 138.526 6.40552C138.28 6.08359 138.034 5.76165 137.789 5.4397C138.273 5.66356 140.417 6.09328 140.762 5.88161C140.807 5.85387 140.863 4.93447 141.398 4.85211C141.872 4.77937 141.953 5.46745 142.207 5.59773C142.421 5.7052 142.659 5.52326 142.723 5.56087C142.771 5.591 142.793 6.01193 142.91 6.08461C143.28 6.30927 142.974 5.12564 143.349 6.48467C143.26 6.53712 143.171 6.58957 143.082 6.64202C143.529 6.83622 144.14 7.4504 143.487 7.7595C143.375 7.81286 143.469 7.40489 143.385 7.40613C140.095 7.50279 142.727 8.27791 143.876 7.638C144.176 8.2397 145.834 7.86061 145.89 7.9792C145.967 8.15099 145.686 8.63519 146.061 9.04933C146.14 9.13701 148.357 8.7849 147.563 9.59217C147.399 9.7587 146.334 9.59162 146.078 9.61689C146.69 10.8923 148.093 9.05046 148.252 9.09642C148.895 9.29171 147.026 10.213 148.473 10.3524C149.585 10.4594 148.536 9.61185 148.961 9.2445C149.2 9.03837 150.464 9.9714 150.422 8.75299C150.853 8.6201 150.605 9.26698 150.658 9.31304C150.711 9.35351 151.557 8.9833 151.834 9.23841C151.868 9.27013 151.767 9.90421 151.802 9.95582C151.869 10.0441 152.687 9.91229 152.72 9.85841C152.741 9.82099 152.542 9.26769 152.621 9.13268C152.714 8.97701 153.502 9.10249 153.545 8.94368C153.605 8.70361 152.633 8.86771 152.791 8.24653C153.241 8.39983 153.968 7.98141 154.261 7.4803C154.19 7.6235 153.755 7.64676 153.604 7.5974C153.669 6.68871 154.602 6.69514 154.288 7.41603C154.488 7.02868 154.348 6.82475 154.46 6.45968C154.49 6.3672 154.778 6.34635 154.832 6.18874C154.839 6.15736 154.54 5.81658 154.598 5.63172C154.704 5.29769 155.578 5.36712 155.65 5.45412C155.853 5.70067 155.143 6.00508 155.086 6.38855C155.077 6.44744 155.688 7.19431 155.698 7.26056C155.738 7.97171 155.06 7.46335 155.141 8.10339C155.309 8.23762 155.477 8.37186 155.644 8.50609C155.005 9.15882 153.813 8.83286 153.511 9.5726C154.463 9.34697 155.461 9.36658 155.47 11.0281C155.474 11.7278 155.065 12.1407 155.082 12.3185C155.147 12.9547 155.713 12.2595 155.735 12.293C155.752 12.3317 155.76 12.3694 155.761 12.4061C155.761 12.4062 155.761 12.4062 155.761 12.4062C155.763 12.7789 154.951 13.0525 154.911 13.223C154.844 13.5257 155.215 14.7678 155.216 15.043C155.203 15.0984 154.626 15.3966 154.824 15.8756C155.025 16.3595 155.533 16.367 155.551 16.4173C155.65 16.7069 154.764 16.9773 154.738 17.1488C154.725 17.2356 155.205 17.765 155.22 17.9179C155.233 18.0714 154.873 18.4089 154.733 18.8946C154.629 19.2554 154.94 19.5296 154.886 19.5864C154.848 19.6241 154.009 19.6233 153.968 19.6869C153.907 19.7809 154.106 20.2101 154.079 20.3179C154.039 20.473 153.767 20.3193 153.803 20.4784C153.831 20.5969 154.89 22.0741 154.886 22.4705C154.878 23.1466 153.756 21.5982 154.808 24.2594C154.815 24.2769 155.066 24.0857 155.073 24.1021C155.232 24.5919 154.429 25.3521 155.415 25.2138C153.584 26.0781 155.193 26.2316 154.929 27.3716C154.827 27.8098 154.116 27.9948 154.113 28.0604C154.186 28.6151 154.41 28.1831 154.489 28.4548C154.532 28.6066 153.899 29.1975 154.045 29.5777C154.12 29.7736 154.796 29.6994 154.824 29.7375C155.094 30.0971 154.768 30.4884 154.829 30.7446C154.869 30.9165 155.277 30.9275 155.288 30.9584C155.305 31.0227 154.756 31.7215 154.642 31.9666C154.555 32.1552 154.886 32.4477 154.826 32.53C154.46 33.0226 153.667 31.7774 154.435 33.5244C154.482 33.6315 154.767 33.5863 154.776 33.6077C154.956 34.1032 154.429 34.1494 154.338 34.5566C154.18 35.2581 154.935 34.8628 154.309 35.3594C154.784 35.8145 155.047 35.7937 155.598 35.6625C154.071 36.0285 153.542 37.8454 155.241 37.7889C154.7 37.7641 154.767 38.7872 154.605 38.8062C154.505 38.8169 153.715 37.8042 154.089 40.0852C154.136 40.3701 154.61 40.0047 154.464 40.5894C153.321 40.4478 154.442 40.961 154.444 41.0382C154.438 42.3833 151.64 41.2995 151.161 41.4559C150.606 41.6373 150.118 42.7003 149.997 42.7024C149.6 42.7054 149.926 42.1652 149.836 41.9679C149.745 41.7724 148.62 42.8105 148.563 42.7542C148.342 42.5282 148.56 41.8892 148.537 41.8571C148.264 41.4681 146.747 41.9771 146.321 41.8316C146.336 42.2451 147.191 42.2725 146.662 42.9403C146.046 43.7189 145.998 41.8956 145.982 41.8154C143.136 41.8508 140.291 41.8863 137.445 41.9217C137.487 42.8916 139.342 42.1481 139.386 42.2755C139.639 43.0302 136.496 43.0363 136.108 42.6962C136.402 42.9039 136.697 43.1116 136.991 43.3193C136.498 44.4378 135.382 42.9958 134.662 43.4928C134.429 43.654 134.88 44.0816 134.871 44.111C134.612 44.5459 134.188 44.2149 134.499 43.6312C133.862 44.1926 133.952 43.5771 133.459 43.5341C133.434 43.5323 133.648 43.981 133.26 44.1701C133.078 44.2584 132.105 44.266 131.978 44.6605C131.925 44.8266 132.43 46.5689 132.481 45.0663C133.544 45.7918 132.815 44.3796 133.226 44.4115C133.289 44.4189 133.149 45.2584 134.182 44.8571C133.994 46.3704 132.795 45.2473 132.592 45.4318C132.173 45.811 133.915 46.5808 134.226 45.4C134.084 46.581 134.35 45.5583 134.737 45.6043C135.161 45.6542 134.979 46.0068 135.208 46.0072C135.835 46.012 135.57 45.1807 136.092 45.9283C135.573 43.6069 136.975 45.616 137.383 46.2222C136.725 46.3444 136.068 46.4666 135.41 46.5888C135.448 46.7107 135.487 46.8325 135.525 46.9543C135.352 46.9382 135.178 46.922 135.005 46.9058C135.032 46.7886 135.059 46.6714 135.086 46.5543C134.196 47.3206 133.972 46.4671 133.899 46.4581C132.96 46.3649 131.876 46.3791 130.927 46.3824C130.784 46.3829 130.887 47.1431 129.845 46.5541C129.513 46.3665 129.821 45.7726 129.447 45.8638C128.988 47.4752 128.988 46.1923 128.849 46.1912C128.448 46.1939 128.206 46.5939 128.169 46.5983C127.674 46.6637 126.949 46.6018 126.406 46.6645C126.396 46.6706 126.682 47.163 126.328 47.019C126.203 46.9676 125.078 44.8653 124.11 45.5591C124.364 45.6999 124.618 45.8407 124.871 45.9815C124.573 45.7844 122.493 46.3292 123.006 46.8906C123.32 47.2338 124.074 45.8693 124.166 47.1762C123.47 46.7893 119.645 47.399 119.344 47.0971C119.303 47.054 119.554 46.6281 119.497 46.5742C119.452 46.5332 118.576 46.6393 118.458 46.4771C118.388 46.3807 118.774 46.1182 118.742 45.9656C118.714 45.8568 117.617 45.6821 117.558 46.2142C117.825 45.9991 118.583 46.1807 118.189 46.6314C118.138 46.6874 117.872 46.3461 117.81 46.4171C117.24 47.0723 118.957 46.905 119.223 46.9086C118.148 47.5929 116.473 46.805 115.226 47.2545C114.718 46.8152 115.971 46.5727 115.397 46.2097C114.206 45.4572 115.085 46.8237 115.048 46.8803C114.757 47.3287 113.738 44.9421 113.749 46.7634C113.318 46.492 113.455 46.2615 112.85 46.5036C112.931 46.6293 113.011 46.7549 113.092 46.8805C112.425 47.9399 110.982 45.2872 111.088 45.0835C111.372 44.5383 112.119 45.3812 112.183 45.3604C112.276 45.3296 112.524 43.4798 113.562 45.1257C113.975 43.8835 111.928 44.2995 112.855 43.4486C112.227 43.5913 109.631 42.745 109.262 43.2914C109.218 43.3628 109.433 44.5965 108.789 43.972C108.483 43.6746 109.215 43.6555 109.075 43.375C108.641 42.5142 102.827 43.1037 101.723 43.1563C101.651 43.1582 101.675 42.7747 101.604 42.7787C101.388 42.7907 100.603 43.3674 100.214 43.1934C101.021 43.8978 99.4625 43.963 99.0653 43.8874C98.4626 43.7724 98.4955 43.0976 98.2345 42.9558C97.2286 42.4092 95.6857 44.0207 94.8975 42.5284C94.9495 44.0141 93.5459 41.8084 92.9137 41.7994C92.4185 41.7919 91.7064 42.7798 92.3786 43.3746C91.5234 43.3116 90.6255 43.5945 89.8244 43.6899C89.692 43.7059 89.8716 43.2654 89.6457 43.3065C89.6252 43.3134 89.5997 43.7442 89.4058 43.7903C87.8053 44.1758 88.5794 43.2558 88.2778 42.9887C88.109 42.8391 87.9847 42.765 87.8936 42.7409C88.8274 42.6507 89.9039 42.4748 90.192 42.4607C89.9401 41.5114 88.1225 42.6565 87.5864 42.4041C87.5678 42.3949 87.629 41.8704 87.6102 41.8668C87.6098 41.8668 87.6093 41.8668 87.609 41.8668C87.4084 41.8279 86.134 42.0294 86.4006 42.6527C86.4722 42.8192 87.0593 42.8152 87.7554 42.7539C87.5676 42.8724 87.7121 43.4586 87.679 43.4838C87.2775 43.7766 86.2858 43.2099 85.9348 43.1348C85.8546 43.1184 85.8627 43.4945 85.8496 43.4955C85.5302 43.4121 85.6542 42.3372 85.3342 43.4469C84.7484 42.112 86.4149 43.2413 86.2924 42.3726C86.1983 41.7038 82.5153 42.0868 82.5331 43.1412C82.5196 43.0285 82.4681 42.8889 82.3631 42.7303C82.1304 42.3779 81.1053 42.4952 80.9295 42.6906C80.8999 42.729 80.9184 43.7525 80.8814 43.7621C80.7889 43.7862 79.53 42.9918 79.0656 43.5997C79.3194 43.7416 79.5732 43.8834 79.827 44.0252C78.2999 44.0438 78.5379 44.3469 79.0487 44.6497C79.0741 44.6523 79.0991 44.691 79.1234 44.695C79.5192 44.9188 80.0262 45.1335 80.0344 45.2142C80.0653 45.5221 77.4756 45.71 77.9678 44.7573C78.0365 44.6271 79.2379 45.0423 78.64 44.3685C78.5354 44.2505 77.7668 44.4487 77.7259 44.3743C77.4522 43.8796 79.1291 43.2092 78.9191 42.505C78.5154 43.1793 77.9895 42.8289 77.5227 43.0053C77.3102 43.085 77.2612 43.5985 77.235 43.6084C76.8433 43.7448 77.0602 43.2054 76.9292 43.2197C76.8589 43.2294 76.0926 44.3794 76.2288 42.7999C73.6872 43.9774 75.5311 43.9645 77.0941 43.8656C76.6037 44.4437 75.6333 44.1718 75.1995 44.308C75.0438 44.3574 75.1396 44.8836 74.8768 44.9906C74.336 45.2108 71.7433 44.6222 71.068 44.4839C71.481 44.2951 71.3562 43.7221 71.0368 43.7638C70.7173 43.8058 70.9907 44.5699 70.9289 44.6526C70.8626 44.7383 69.3603 44.3864 69.1114 44.4872C70.2389 44.2026 69.9804 43.6321 69.0216 43.5783C69.1591 43.4126 69.2966 43.2469 69.4341 43.0812C68.8738 43.3164 67.6871 42.4511 67.364 42.7129C67.3133 42.755 67.4994 43.2349 67.4709 43.2585C67.1874 43.4648 66.2152 42.9803 66.1711 43.1447C66.1338 43.2816 66.5497 43.6823 66.3975 43.8819C66.3658 43.9239 65.9631 43.2761 65.5716 43.4385C65.4264 43.4982 65.517 43.9526 65.4805 43.9793C65.1761 44.2001 65.3517 43.4327 64.7937 43.5594C64.3848 43.6531 64.0847 44.4041 63.5173 44.1596C65.3811 45.1026 63.8169 44.7138 63.042 45.008C62.9178 45.055 63.0297 45.8803 62.2834 45.4829C63.8568 43.9793 61.8271 44.6964 61.4109 44.6827C61.388 44.6778 61.3767 44.1332 61.1726 44.1257C61.1553 44.1263 61.1825 44.4943 60.993 44.5236C59.1958 44.8012 60.3434 44.378 59.9993 44.0172C59.8528 43.8635 58.9814 44.3896 58.7459 44.4037C58.6917 44.4053 58.7142 44.0227 58.5046 44.039C58.134 44.0688 57.8043 44.4781 57.5598 44.5119C57.5312 44.514 57.5262 43.9105 57.0635 44.1092C56.9334 44.1647 56.7883 44.3799 56.9747 44.5523C57.5928 45.119 58.752 44.1239 59.4501 44.6891C60.0867 45.2038 58.0901 45.2654 57.9862 45.2691C57.9481 45.2713 58.3362 44.9691 57.9396 44.9124C57.6009 44.8651 56.9892 45.9114 56.4834 45.6877C56.4449 45.6711 56.0363 44.7899 56.0546 44.7382C56.0712 44.7004 56.6887 44.5047 56.5973 44.2495C56.5863 44.2204 56.1931 44.2288 56.1406 44.0388C56.0763 43.8074 55.8923 41.5338 55.8079 41.4772C55.5916 41.3377 55.7351 41.8556 55.5955 41.8204C55.2961 41.7462 54.255 41.0801 54.2263 41.8688C54.3979 41.9145 54.5695 41.9602 54.7411 42.0059C53.7886 42.0931 54.197 42.4261 54.0629 42.5749C53.9185 42.7357 53.955 42.0425 53.6334 41.9794C53.5634 41.9655 52.2202 42.1188 52.2465 42.4094C52.9869 41.9419 52.7168 42.8001 52.7511 42.8152C52.8817 42.8701 53.045 42.3886 53.2198 42.3971C54.4491 42.4645 53.2146 43.2306 53.506 43.4238C53.6063 43.4888 53.8026 43.0774 53.8451 43.0981C53.9832 43.1652 53.9889 43.7022 54.0804 43.6582C54.2941 43.556 54.0391 42.7977 54.0558 42.758C54.2443 42.2812 54.9985 42.8682 54.5366 43.698C54.8189 43.9942 54.8454 42.9891 55.0704 43.3894C55.5176 44.1821 54.8539 43.982 54.6753 44.1152C54.0345 44.5958 53.8411 44.2113 52.9306 44.3491C52.6027 44.3978 52.2171 44.8884 52.065 44.9162C51.9692 44.9337 51.0527 43.241 51.043 45.8993C50.6893 45.6444 50.1258 43.8962 49.7636 43.9787C49.4384 44.0538 49.548 44.9935 49.5178 45.0301C49.4716 45.0876 49.0774 45.016 48.945 45.1497C48.79 45.3077 48.8701 45.6662 48.6234 45.814C48.0095 46.181 48.0196 45.221 47.9558 45.1591C47.2159 44.4427 47.5466 45.806 47.3841 45.9165C47.233 46.0181 45.1013 45.5062 44.6555 45.8546C44.8365 45.6611 45.0176 45.4677 45.1987 45.2743C44.8686 44.6776 44.529 45.6564 44.5161 44.5828C44.4609 46.3166 43.7801 45.1622 43.5781 45.2083C43.4985 45.2273 43.5067 45.5226 43.407 45.536C43.0175 45.5902 42.1372 45.3607 41.9268 45.5118C41.0166 46.1625 43.3613 47.2202 43.5458 47.2838C43.1773 47.2671 41.0953 47.6686 42.0587 48.4958C42.2076 48.6234 42.4651 47.846 42.5481 47.8151C43.1099 47.6118 42.6715 48.3098 42.7161 48.3756C42.7918 48.4818 43.1581 47.8075 43.2564 47.8869C43.2892 47.9124 43.0831 48.5431 43.6201 48.553C43.3599 49.1649 41.8475 48.6773 41.6504 48.8219C41.5802 48.8735 42.0306 50.1746 40.731 48.9162C40.7467 49.0372 40.7625 49.1582 40.7782 49.2791C40.0593 49.3335 39.3405 49.388 38.6216 49.4424C38.698 49.163 39.0982 48.6002 38.5904 48.7223C38.298 48.793 38.5186 49.4128 38.492 49.431C38.2303 49.6037 33.5784 49.4266 32.6776 49.5016C32.3711 49.5261 31.5198 50.0308 31.4546 50.0404C31.0653 50.0929 29.6835 49.7767 29.4087 49.849C29.2371 49.8953 29.4038 50.4136 29.2501 50.3902C29.1073 50.3678 29.2519 49.8649 29.2094 49.8442C28.8571 49.6645 26.194 50.3398 25.5577 49.8705C25.9457 50.0101 27.871 48.995 27.8299 48.6413C27.8212 48.5929 27.3493 48.214 27.2536 48.4008C27.0909 47.9673 26.5499 49.2939 26.2495 49.0359C26.2155 49.0066 26.3439 48.2636 25.8097 48.1323C25.6257 48.0875 25.1484 48.669 24.6601 48.0237C23.9612 48.3397 20.2702 47.4007 20.0225 48.1997C20.0153 48.2418 20.5359 48.5131 20.1874 48.8426C19.7241 49.2806 20.1333 47.8127 19.5893 47.6897C19.5074 47.671 17.9971 47.8289 17.9482 47.9199C17.4957 48.7452 18.8184 49.0701 18.8005 49.1658C18.756 49.4068 17.6597 49.5594 17.6147 49.503C17.5719 49.4442 18.4598 48.3489 17.3871 48.7689C17.5111 48.8983 17.6351 49.0277 17.7592 49.1572C17.255 49.414 17.2021 48.6605 17.0792 48.6152C16.6975 48.4718 16.2927 49.6195 15.6735 48.2091C15.5098 47.8348 15.775 47.4163 15.7544 47.3601C15.5574 46.8562 15.3187 48.2092 15.0208 47.2031C14.9984 47.128 15.6728 46.5199 14.4873 46.5259C14.5695 46.622 14.6517 46.7181 14.7339 46.8142C14.5681 47.0311 13.3685 47.1669 13.2067 47.1169C12.734 46.9709 13.141 46.2745 12.6674 46.3605C12.9775 47.3092 11.5364 47.4425 11.6141 46.6235C11.4193 47.6527 10.1894 46.8676 9.61341 46.8468C9.25001 46.8345 8.5118 47.2878 8.39603 47.2361C8.255 47.1727 8.29326 46.4712 8.03835 46.3167C7.96566 46.2726 7.21304 46.7915 6.54492 46.0698C6.41544 45.9308 6.13781 44.743 6.37491 44.4442C6.78076 43.9329 7.56075 44.8862 7.5464 44.1835C7.53001 43.4317 6.4905 43.8855 6.20932 43.7891C4.91115 43.3435 5.65401 42.5395 5.61915 42.2974C5.52903 41.71 4.8214 41.7328 4.79154 41.6801C4.66765 41.4461 5.1662 40.9776 5.17149 40.6187C5.17765 40.1514 4.49009 39.3125 4.64418 39.1541C4.86475 38.929 5.49617 39.6278 5.53571 39.594C6.05024 39.1374 5.33413 38.0625 5.13528 37.5334C5.07498 37.3706 5.30938 37.101 5.25994 37.0534C4.50536 36.3321 5.11152 38.5715 4.61174 38.4248C4.16584 38.2941 4.73394 37.5812 4.71669 37.5422C4.69445 37.4993 4.16207 37.464 4.07717 37.2136C4.03532 37.0882 5.4096 35.6996 5.3479 35.0813C4.90748 35.2205 4.46706 35.3596 4.02663 35.4987C3.9869 34.6923 4.62541 35.282 4.69053 35.1984C4.82163 35.0307 4.4505 34.6249 4.46469 34.3698C4.47215 34.2075 4.90099 33.6259 4.50871 33.3898C4.37389 33.3083 4.09566 33.8756 3.60286 33.301C5.30037 32.5522 4.11788 32.1063 4.06589 31.8209C4.01492 31.5355 4.82328 30.8579 3.83763 30.9831C3.78486 29.4136 3.85573 30.4867 4.13426 30.209C4.47547 29.8677 3.6786 29.3558 4.93604 29.74C4.85996 29.0055 3.85161 29.0639 3.79783 29.0057C3.75138 28.9528 3.97329 28.5899 3.89256 28.4679C2.93791 27.0538 3.59153 27.6982 3.31188 26.793C3.28701 26.7122 2.39111 26.3816 3.07069 26.2452C4.30877 25.9972 4.83348 27.0354 5.02761 24.8075C4.10455 23.8462 3.00275 25.2905 2.72418 25.3166C2.29778 25.3544 2.73683 24.8975 2.68345 24.7706C2.66493 24.7296 2.29753 24.7694 2.29236 24.7334C2.0194 23.0368 3.92882 24.6948 4.52475 24.3957C4.36289 24.1424 4.20103 23.8891 4.03918 23.6358C4.25651 23.6242 4.47384 23.6126 4.69116 23.6011C3.65225 23.0965 4.65342 23.4078 4.9029 22.031C4.95891 21.7217 4.28189 22.2559 5.05257 21.3922C4.47886 21.1977 4.65966 20.9156 4.14378 21.3065C4.15365 20.7552 5.31594 20.1261 5.77413 19.8403C4.14514 19.2313 5.08472 21.247 3.67307 20.1864C3.4169 20.8705 4.08661 20.7333 4.03265 20.8463C3.83905 21.2526 3.37505 20.6124 2.82923 22.0351C2.74036 22.2687 3.12722 22.9834 2.5613 22.9524C2.4987 22.9479 2.13433 22.3373 2.13904 22.2928C2.18377 21.8125 2.54162 21.9901 2.55507 21.7896C2.56768 21.5999 2.17045 21.7165 2.16874 21.6639C2.15268 21.0626 2.49932 21.432 2.44812 21.244C2.33753 20.8353 0.897822 19.5503 2.76843 19.9174C1.22103 20.6072 2.57399 20.5827 3.17662 20.3177C3.3303 20.2512 3.36704 19.8918 3.58583 19.7657C3.86726 19.6025 4.19895 19.7728 4.34469 19.706C4.50141 19.6323 3.60285 18.7889 4.89623 19.0341C4.23343 18.1937 3.07792 19.1015 2.42836 18.5127C1.11782 17.3227 3.32752 17.0513 3.55715 16.9337C3.61832 16.9019 3.40947 16.4181 3.4502 16.3881C3.51681 16.3421 4.77326 16.5583 4.89446 16.1561C5.01532 15.7543 4.43489 16.1775 4.39346 15.7595C4.36539 15.4781 5.87622 14.969 5.05541 14.7817C4.48967 14.6534 3.45564 15.7918 3.2725 14.5764C4.10261 14.4704 4.93272 14.3644 5.76282 14.2584C5.30518 13.7984 4.84754 13.3385 4.38989 12.8785C5.32138 12.7258 6.1308 13.2432 7.01217 12.5749C4.87468 11.1053 7.69558 11.3869 7.72543 11.2062C7.73512 11.0981 6.88984 9.89962 6.75366 9.68028C7.49293 9.21243 9.74681 8.97176 8.41785 7.49365C8.65949 7.82777 9.23419 6.99554 9.22614 6.93305C9.14831 6.27681 7.88606 6.71072 8.08859 6.11627C8.32329 5.42644 8.66426 6.35809 9.03159 6.28118C10.9165 5.88039 10.3769 2.45537 12.2728 2.9858C12.2344 2.86397 12.196 2.74214 12.1576 2.6203C14.2159 2.8015 16.2742 2.9827 18.3325 3.16389C19.1306 2.11183 21.2685 1.46066 22.3213 1.56979C22.5333 1.591 23.5768 2.13384 23.6559 2.22967C23.8025 2.41336 23.0037 2.48889 23.3671 2.83274C23.4438 2.9033 25.2061 3.12296 25.0764 2.53802C24.8787 2.47136 24.2631 2.76973 24.1611 2.63236C23.4449 1.65176 28.8784 2.40418 29.1448 2.00548C29.0233 1.81602 28.9019 1.62656 28.7804 1.4371C29.1236 1.5285 29.4667 1.61991 29.8099 1.71131ZM14.3691 48.8553C14.1672 49.4443 13.6492 49.0062 13.3458 49.1731C12.9266 49.4068 12.226 51.6745 12.5194 49.4042C13.136 49.2212 13.7525 49.0382 14.3691 48.8553ZM23.4023 49.6736C22.9861 49.3606 23.2993 48.0916 23.6421 48.6161C23.6802 48.6757 23.9654 50.095 23.4023 49.6736ZM19.0561 49.1001C19.0734 49.0832 19.4316 49.1144 19.4442 49.1342C19.7685 49.6408 18.6886 49.5438 19.0561 49.1001ZM40.0288 48.3164C39.5728 48.374 39.9106 49.5236 40.1913 49.0479C40.209 49.0176 40.0588 48.3135 40.0288 48.3164ZM39.704 48.288C39.343 47.2589 38.6424 49.3536 39.2086 49.1396C39.2635 49.118 39.7207 48.3381 39.704 48.288ZM21.9227 49.1795C21.9668 48.7839 22.3952 48.972 22.5783 49.0654C22.5756 49.4263 22.1013 49.1342 21.9227 49.1795ZM32.7548 49.0006C32.7709 48.6897 31.286 48.7164 31.1875 49.1266C31.4207 48.9513 32.7395 49.28 32.7548 49.0006ZM36.5605 48.5399C36.5225 48.4865 36.01 48.5714 36.0267 48.8455C36.2794 49.2036 36.7315 48.782 36.5605 48.5399ZM44.1301 48.51C44.1576 48.441 43.7622 46.6986 44.6799 47.8412C44.8147 48.0085 44.3402 48.4675 44.3881 48.5298C44.4883 48.6512 44.5673 48.7076 44.6305 48.7174C44.2075 48.8648 43.7675 48.9356 43.7242 48.83C43.5209 48.3314 44.118 48.5389 44.1301 48.51ZM48.0959 47.1847C48.1814 46.8995 48.7403 47.0481 48.868 47.1645C48.8899 47.1864 48.7996 47.935 49.0505 47.8775C49.2519 47.83 48.9457 47.0658 49.3394 47.1859C49.7372 47.3064 49.2102 47.8558 49.2451 47.8945C49.292 47.9453 49.9039 47.5974 49.8876 48.043C49.8755 48.3732 49.2161 48.1542 49.0539 48.2254C48.8461 48.3168 49.1022 48.8651 48.7533 48.7492C48.534 48.6768 48.6492 47.7091 48.6027 47.6606C48.5637 47.6215 47.8025 48.1828 48.0971 47.1877C48.0966 47.1867 48.0962 47.1857 48.0959 47.1847ZM44.745 48.674C44.7132 48.7069 44.6759 48.7245 44.6305 48.7174C44.6689 48.7041 44.7071 48.6886 44.745 48.674ZM15.5631 48.4234C15.7803 48.7203 15.1437 49.1067 14.8992 48.7176C14.893 48.4026 15.5285 48.3772 15.5631 48.4234ZM45.1331 47.8841C45.7645 48.1223 45.3034 48.4584 44.745 48.674C44.9215 48.4909 44.9211 47.8045 45.1331 47.8841ZM27.2536 48.4008C27.2806 48.4728 27.2982 48.5851 27.3015 48.7698C27.2304 48.5682 27.2235 48.4598 27.2536 48.4008ZM28.7251 48.7211C29.2252 48.1552 28.2019 48.1844 28.211 48.587C28.215 48.739 28.705 48.7436 28.7251 48.7211ZM40.6145 48.3676C40.5681 48.3129 41.2731 46.6092 40.2419 47.8908C40.7979 48.0876 40.2138 48.2763 40.2234 48.4251C40.2488 48.8526 41.1779 48.4356 41.3854 48.6191C41.5421 47.8529 40.7678 48.5481 40.6157 48.3676C40.6153 48.3676 40.6149 48.3676 40.6145 48.3676ZM55.2607 47.551C55.1373 48.0002 54.7358 47.8585 54.4654 47.8338C54.5888 47.3846 54.9902 47.5264 55.2607 47.551ZM125.986 47.1646C124.137 47.591 123.885 45.7666 125.584 46.4775C125.617 46.4924 126.097 46.9789 125.986 47.1646ZM110.089 46.7928C109.91 45.9981 110.486 45.8665 110.868 46.1928C110.954 46.2661 111.276 47.0702 110.915 47.2301C110.921 46.2654 110.358 45.9005 110.089 46.7928ZM45.4858 47.3722C45.6659 46.8403 46.2328 47.2145 46.5308 47.2923C46.352 47.7304 45.7499 47.5366 45.4858 47.3722ZM119.894 46.2512C119.699 46.1922 119.571 46.8854 119.605 46.9428C119.758 47.2061 120.119 46.644 119.894 46.2512ZM43.663 47.3014C43.6352 46.9844 44.381 46.6744 44.438 47.4582C44.2778 47.4025 43.6828 47.5003 43.663 47.3014ZM54.7494 47.3162C54.6324 47.1557 55.2317 46.8632 55.4146 47.0221C55.4021 47.3597 54.8262 47.4206 54.7494 47.3162ZM116.753 46.5062C116.578 46.4472 116.141 46.4317 116.095 46.7119C116.037 47.0621 116.676 46.9388 116.753 46.5062ZM149.273 45.6948C149.296 45.8204 148.626 46.7309 148.323 46.5035C147.75 46.0684 149.249 45.6062 149.273 45.6948ZM121.74 45.8824C122.295 46.5374 121.679 45.9036 121.708 46.5968C122.079 46.6194 123.002 46.6477 122.363 45.97C122.239 45.8389 121.913 45.9262 121.74 45.8824ZM121.23 45.6537C121.172 45.8787 120.779 46.5893 121.122 46.5364C121.281 46.5109 121.532 45.7224 121.23 45.6537ZM145.085 46.0298C144.587 45.4191 146.854 45.734 146.92 45.8411C146.954 45.8976 146.977 45.951 146.99 45.9963C147.072 45.8012 147.5 45.7634 147.553 46.2551C147.424 46.2153 147.074 46.2608 147.033 46.2066C147.015 46.1835 147.002 46.1618 146.993 46.1397C146.845 46.5678 145.18 46.1455 145.085 46.0298ZM141.328 45.4219C141.887 44.5128 141.997 46.0517 141.949 46.1016C141.338 46.7357 141.732 45.5977 141.712 45.5446C141.669 45.4564 141.235 45.986 141.33 45.4219C141.329 45.4219 141.329 45.4219 141.328 45.4219ZM144.314 45.7814C144.337 45.7612 144.812 45.8058 144.832 45.8299C145.224 46.3449 143.88 46.2209 144.314 45.7814ZM51.0844 46.0883C51.4252 46.2392 51.0955 46.8077 50.8683 46.6054C50.8497 46.5855 50.7838 45.955 51.0844 46.0883ZM120.959 45.808C120.88 45.7015 118.862 45.3107 118.988 46.1655C119.159 46.0634 121.453 46.4892 120.959 45.808ZM105.896 45.6964C106.252 45.7008 105.869 46.5101 105.678 46.2106C105.607 46.0993 105.807 45.6959 105.896 45.6964ZM42.6502 46.5754C42.284 47.021 42.3509 45.5335 42.674 46.0411C42.6867 46.061 42.6646 46.558 42.6502 46.5754ZM108.739 46.1422C107.516 46.639 107.79 44.0792 109.389 44.9326C109.34 45.0468 109.291 45.1611 109.242 45.2753C111.083 45.6473 109.369 45.4548 108.919 45.6009C108.748 45.6564 108.895 46.0825 108.74 46.1453C108.739 46.1443 108.739 46.1432 108.739 46.1422ZM104.027 45.6595C102.835 43.8515 105.096 45.0194 105.741 44.7788C105.119 45.5325 104.303 45.4243 105.417 46.1848C103.796 46.3435 104.466 45.6161 104.401 45.5564C104.324 45.4895 104.078 45.7371 104.027 45.6595ZM107.141 45.6275C107.209 45.5741 107.725 45.9404 107.91 45.8789C107.655 46.5008 106.69 45.9906 107.141 45.6275ZM137.396 45.8681C137.436 45.3819 137.539 45.0233 137.946 45.2024C137.822 45.4473 137.564 45.659 137.396 45.8681ZM13.9625 46.3003C13.6829 46.2673 13.1253 46.0877 13.2992 46.5975C13.3182 46.641 13.9635 46.5871 13.9625 46.3003ZM115.103 45.4516C115.043 45.3923 113.506 45.3619 114.04 45.8948C114.202 46.0555 115.6 45.9779 115.103 45.4516ZM123.062 45.462C122.934 45.4577 122.412 45.5526 122.401 45.6676C122.368 46.0652 123.008 45.8426 123.062 45.462ZM12.5497 45.8119C12.5126 45.7617 11.6597 45.8564 11.755 46.0916C11.936 46.5363 12.677 45.9847 12.5497 45.8119ZM52.3135 44.9421C52.3848 44.9237 52.4825 45.4509 52.5072 45.4566C52.5653 45.4638 53.87 45.2525 53.3753 45.9333C53.2928 46.0474 51.4121 45.7991 51.1673 45.7337C51.0682 45.0097 51.8752 45.6939 52.0701 45.6181C52.1044 45.6037 52.1226 44.9974 52.313 44.9451C52.3131 44.9441 52.3133 44.9431 52.3135 44.9421ZM139.507 45.342C139.562 44.8809 141.095 44.5661 141.081 45.1244C140.556 45.1969 140.031 45.2695 139.507 45.342ZM138.726 45.2706C138.397 44.9468 139.163 44.8341 139.39 44.9765C139.395 45.2864 138.774 45.318 138.726 45.2706ZM120.139 43.7593C119.986 43.8729 120.464 44.5421 120.359 44.6735C120.292 44.7553 119.945 44.5055 119.837 44.7165C119.806 44.7835 120.162 45.4131 120.263 45.3852C120.407 45.3478 120.264 44.8515 120.422 44.847C120.945 44.833 121.411 45.1847 121.902 45.1733C121.946 45.1713 121.6 44.8224 121.978 44.8249C122.037 44.8246 122.391 45.3454 122.843 45.265C123.831 43.6388 124.574 45.2246 125.838 44.6325C125.789 44.4802 124.839 44.0772 124.783 44.0624C123.722 43.8028 121.824 43.7856 120.715 43.7892C120.43 43.7896 120.57 44.1316 120.448 44.1449C120.351 44.1548 120.462 43.5192 120.139 43.7593ZM14.1087 45.9484C13.9715 45.3152 13.5069 45.7195 13.2083 45.6886C13.3169 46.2599 13.8162 45.8098 14.1087 45.9484ZM131.83 44.8232C131.681 44.8486 131.216 44.6606 131.179 44.8518C131.131 45.1014 131.801 45.2544 131.83 44.8232ZM59.6785 45.0752C59.6928 45.0579 60.0529 45.0895 60.0666 45.1094C60.3913 45.6162 59.3114 45.5188 59.6785 45.0752ZM68.2865 45.1425C68.5589 45.0625 68.8328 44.8626 68.9278 45.3765C68.7534 45.2988 68.2568 45.501 68.2865 45.1425ZM80.1611 45.0516C80.1005 44.3782 80.9245 44.8093 81.08 44.8687C81.0244 45.1685 80.2055 45.5368 80.1611 45.0516ZM137.324 43.7536C137.826 43.7903 137.713 42.7704 138.035 43.2303C138.088 43.308 138.269 45.4319 137.712 44.6392C137.612 44.4968 137.998 43.9893 137.324 43.7536ZM109.649 44.9523C109.774 44.5058 110.174 44.6355 110.443 44.6695C110.385 45.001 109.84 44.9193 109.649 44.9523ZM11.005 45.312C10.7655 44.6843 9.68052 45.158 9.95239 45.572C9.99102 45.626 10.8522 45.2892 11.005 45.312ZM46.7495 45.3316C47.194 44.8332 46.2658 44.6857 45.9762 45.1717C46.1085 45.1391 46.7195 45.3644 46.7495 45.3316ZM77.3064 44.7035C77.3278 44.6831 77.8027 44.7279 77.8241 44.7521C78.2164 45.2671 76.8725 45.1431 77.3064 44.7035ZM65.4508 44.3426C65.6193 43.9338 66.7457 44.2556 67.0003 44.6624C66.7616 45.2601 65.2419 44.8533 65.4508 44.3426ZM135.26 44.0567C135.618 44.0333 135.958 44.1567 136.288 44.3309C136.221 44.6747 135.299 44.3129 135.26 44.0567ZM79.0487 44.6497C79.0741 44.6523 79.0991 44.691 79.1234 44.695C79.098 44.6806 79.073 44.6642 79.0487 44.6497ZM127.241 43.8667C126.94 43.733 127.006 44.3616 127.025 44.3808C127.252 44.583 127.582 44.0175 127.241 43.8667ZM13.7598 45.0167C13.6521 44.4497 13.1501 44.8933 12.8588 44.76C12.9459 45.2078 13.5262 45.0778 13.7598 45.0167ZM102.755 44.5048C102.374 43.8917 103.904 43.167 104.23 43.5615C104.256 43.9417 102.811 44.5887 102.755 44.5048ZM45.354 44.489C45.321 44.0443 44.6802 44.5852 44.8184 44.7945C44.9059 44.9277 45.3737 44.7652 45.354 44.489ZM105.003 43.816C105.147 43.6794 105.485 44.1162 105.369 44.3844C105.219 44.7283 104.966 43.8551 105.003 43.816ZM117.935 43.3766C117.872 43.309 117.027 43.771 117.38 44.2225C117.625 44.5362 117.66 43.893 117.717 43.8907C117.781 43.8923 119.147 44.6706 117.935 43.3766ZM94.1593 44.172C94.478 43.9989 94.866 44.195 95.2007 44.1806C95.0661 44.4566 94.2977 44.5365 94.1593 44.172ZM47.8378 44.3541C47.7589 44.1747 45.6423 44.0798 46.8479 44.6259C46.9182 44.6568 48.0771 44.8974 47.8378 44.3541ZM137.324 43.7536C137.26 43.749 137.187 43.7282 137.102 43.6848C137.186 43.7016 137.26 43.7313 137.324 43.7536ZM131.621 43.7228C131.734 43.3982 131.152 43.3154 130.981 43.4888C130.93 43.8848 131.605 43.7682 131.621 43.7228ZM95.2232 43.7288C95.4149 43.5423 95.7662 43.7378 96.0048 43.7146C95.9664 44.0159 95.3086 44.034 95.2232 43.7288ZM81.6778 43.4763C82.0619 43.6527 82.5327 43.5675 82.5376 43.1992C82.5459 43.2567 82.5649 43.3177 82.5961 43.3789C82.6276 43.4395 83.0368 43.2656 83.2158 43.3902C84.2877 44.13 79.0977 43.8549 82.098 42.7961C81.958 43.0228 81.8179 43.2496 81.6778 43.4763ZM63.924 43.4856C63.7037 43.0388 63.0986 43.6043 63.2577 43.7798C63.3685 43.9 64.1444 43.9355 63.924 43.4856ZM72.2865 43.1668C72.221 43.0872 71.6286 43.4049 71.6149 43.6411C71.9581 43.8877 72.5849 43.5366 72.2865 43.1668ZM62.2497 42.9713C62.1128 42.9046 61.9433 43.6284 61.9596 43.6599C62.0999 43.9228 62.4814 43.3723 62.2497 42.9713ZM136.271 41.8132C136.067 41.6075 135.423 42.1348 135.285 42.613C135.258 42.5208 135.187 42.4009 135.057 42.2573C135.057 42.2573 135.057 42.2573 135.058 42.2573C134.882 42.0657 129.65 41.8883 133.164 42.7852C133.274 42.8139 133.121 42.3864 133.569 42.4591C133.598 42.4644 133.615 42.8141 133.707 42.8306C133.917 42.8662 135.036 43.0792 135.259 42.7962C135.262 42.8611 135.276 42.9227 135.308 42.9791C135.586 43.4818 136.43 41.9718 136.271 41.8132ZM73.4645 43.0952C73.3441 42.9664 72.9663 43.0919 72.929 43.4008C73.1177 43.5509 73.7441 43.3958 73.4645 43.0952ZM47.7641 43.088C47.5187 42.8357 46.9042 43.3142 47.0924 43.5653C47.2079 43.7198 48.047 43.3777 47.7641 43.088ZM69.6731 43.2842C71.0728 43.6402 70.0064 43.2526 70.2176 42.7985C70.0361 42.9604 69.8546 43.1223 69.6731 43.2842ZM142.746 42.9408C142.523 42.8381 142.779 41.9432 143.027 42.4263C143.105 42.5797 142.871 42.9966 142.746 42.9408ZM152.806 42.599C152.611 41.8082 153.543 42.2677 153.184 42.8133C153.167 42.8317 152.82 42.6291 152.806 42.599ZM145.773 42.3203C145.625 42.8606 145.527 42.9252 145.1 42.7946C145.73 42.6387 145.142 42.1654 145.773 42.3203ZM82.5331 43.1412C82.5356 43.163 82.5378 43.1791 82.5376 43.1992C82.5347 43.1794 82.5334 43.1606 82.5331 43.1412ZM60.9367 43.1201C60.7589 42.6644 60.2689 42.7011 60.4178 43.16C60.4322 43.2025 60.8672 43.4581 60.9367 43.1201ZM135.285 42.613C135.309 42.6947 135.297 42.7476 135.259 42.7962C135.257 42.7352 135.267 42.6775 135.285 42.613ZM63.5667 42.731C63.5514 43.072 64.2984 43.1997 64.3281 43.1595C64.7526 42.5657 63.8747 42.7085 63.5667 42.731ZM42.8274 42.6403C42.7891 42.6761 43.0429 43.5544 43.1929 43.2087C43.309 42.9405 42.9706 42.504 42.8274 42.6403ZM147.219 42.0914C147.455 42.0905 147.788 42.0879 147.852 42.5055C147.693 42.4423 147.216 42.3981 147.219 42.0914ZM152.439 42.0276C152.163 42.5207 151.525 42.5234 151.117 42.445C151.105 41.7983 152.178 42.1813 152.439 42.0276ZM136.914 42.0502C136.894 42.024 136.3 41.8348 136.384 42.2672C136.506 42.9013 137.082 42.2845 136.914 42.0502ZM43.981 43.0999C44.244 42.8001 43.6284 41.8878 43.3534 42.5973C43.2121 42.9606 43.9366 43.1501 43.981 43.0999ZM59.4021 42.5317C59.054 42.7844 59.9235 43.2252 60.0416 42.7718C59.8804 42.7365 59.5257 42.4422 59.4021 42.5317ZM71.2963 41.9981C70.1862 40.6997 70.8015 43.0774 70.9956 42.8668C71.0229 42.8367 71.3235 42.0287 71.2963 41.9981ZM8.25433 42.7201C8.0995 42.9025 8.68523 43.5559 8.75773 43.1228C8.8025 42.8518 8.35335 42.6039 8.25433 42.7201ZM87.8936 42.7409C87.8471 42.7453 87.801 42.7499 87.7554 42.7539C87.7895 42.7324 87.8345 42.7252 87.8936 42.7409ZM56.217 40.8032C57.0044 42.6415 56.9139 41.2214 56.9813 41.2287C57.1271 41.2476 57.4687 41.7438 57.7427 41.6602C57.4296 41.8698 57.1166 42.0793 56.8035 42.2888C57.0527 42.4203 59.2143 43.0851 59.2577 42.7859C59.3197 42.3599 58.6418 42.4977 58.6217 42.4604C58.5929 42.4071 58.4793 41.2245 58.4161 41.1799C58.312 41.1086 56.508 41.0955 56.217 40.8032ZM68.9934 42.2173C69.1715 42.3568 69.2248 42.8254 69.3064 42.7128C69.3342 42.6742 69.3359 42.227 69.4309 42.1107C69.2851 42.1463 69.1392 42.1818 68.9934 42.2173ZM54.8386 42.4692C54.6156 41.9242 55.6013 42.1254 55.6333 42.1864C55.804 42.5557 55.0209 42.9144 54.8386 42.4692ZM63.1917 42.3366C63.1556 42.305 62.3985 42.1392 62.4065 42.4424C62.608 42.6722 63.6192 42.7331 63.1917 42.3366ZM69.549 42.0795C69.8149 42.1299 70.3199 42.5771 70.258 41.904C70.2576 41.904 70.2572 41.904 70.2568 41.904C70.0209 41.9625 69.7849 42.021 69.549 42.0795ZM44.8789 41.672C44.3799 40.6027 44.6217 41.9563 45.0597 42.2995C45.1887 41.8172 44.9607 41.846 44.8789 41.672ZM43.2987 40.8824C43.1605 40.6903 41.7507 40.9108 41.9697 41.4769C42.0475 41.6786 42.8557 41.1634 42.8933 41.2024C42.9503 41.2602 42.6955 41.8896 43.1275 41.7625C43.1008 41.5499 43.346 40.9466 43.2987 40.8824ZM44.4672 40.9879C43.9728 40.1754 43.8725 41.6804 44.2404 41.6822C44.3841 41.6839 44.5377 41.1052 44.4672 40.9879ZM46.4659 41.1034C46.289 40.9618 45.8189 40.7567 45.4989 41.2591C45.9316 41.2991 46.3643 41.339 46.797 41.379C46.8451 41.0953 46.6207 41.2278 46.4647 41.1034C46.4651 41.1034 46.4655 41.1034 46.4659 41.1034ZM155.353 38.1544C154.962 37.7303 155.856 37.5612 155.895 37.6657C156.01 38.0129 155.528 38.3439 155.353 38.1544ZM5.13166 29.0735C5.02259 28.9041 4.94843 28.3451 4.71261 28.6397C4.95432 29.0512 5.19602 29.4627 5.43773 29.8742C5.61749 28.9266 5.25088 29.2603 5.13166 29.0735ZM4.1967 25.6216C4.23032 25.5984 4.03657 24.1444 4.47906 25.1131C4.77802 25.7672 3.17904 26.4168 2.88556 25.7734C3.20338 25.4715 3.90718 25.8102 4.1967 25.6216ZM1.34859 19.3405C1.32936 19.2246 1.93732 19.0505 2.00834 19.1318C2.38124 19.5607 1.45255 19.9616 1.34859 19.3405ZM3.2933 19.6059C3.00587 19.3251 3.63747 19.1389 3.82708 19.3003C3.84709 19.5711 3.33769 19.6467 3.2933 19.6059ZM151.284 17.1037C150.968 16.1167 150.705 18.2475 151.178 17.8155C151.201 17.7951 151.297 17.152 151.284 17.1037ZM1.93466 17.8688C2.22208 18.1496 1.59049 18.3358 1.40088 18.1743C1.38162 17.9039 1.8909 17.8278 1.93466 17.8688ZM151.051 14.7491C150.636 14.04 150.796 16.4276 150.848 16.5236C151.061 16.9023 151.78 15.9602 151.927 15.7262C150.844 16.0916 151.246 15.0832 151.051 14.7491ZM149.167 16.1955C148.788 16.4527 149.764 16.9339 149.946 16.2668C149.756 16.2999 149.275 16.1212 149.167 16.1955ZM146.851 15.4442C146.645 15.36 146.035 15.159 145.935 15.5355C146.159 15.466 146.767 15.8315 146.851 15.4442ZM146.38 14.321C146.057 13.8124 145.989 15.3008 146.356 14.8553C146.37 14.838 146.392 14.3494 146.38 14.321ZM144.577 13.7954C144.364 13.205 144.133 14.6475 144.474 14.6842C144.575 14.6924 144.6 13.8631 144.577 13.7954ZM150.521 12.1827C150.219 11.9306 149.838 12.9649 150.48 13.0742C150.256 13.2333 150.032 13.3924 149.807 13.5515C150.652 14.1245 150.581 12.6939 150.823 12.7515C151.16 12.8335 151.141 14.0145 151.076 14.3857C151.348 13.6605 152.523 13.6414 153.201 13.4994C152.603 13.1995 151.631 12.6793 151.04 12.4907C150.872 12.4361 150.711 12.761 150.567 12.7257C150.337 12.6673 150.538 12.1997 150.522 12.1827C150.522 12.1827 150.521 12.1827 150.521 12.1827ZM142.212 13.7891C141.591 13.1227 141.99 14.5674 142.337 14.3071C142.352 14.2872 142.228 13.8054 142.212 13.7891ZM1.08831 13.4764C1.91668 14.076 1.32247 14.8815 3.03956 13.6531C2.3204 14.5196 3.00343 14.2732 2.8642 14.6217C2.75248 14.8975 2.32585 14.6724 2.57653 15.2248C2.24783 14.6239 0.838543 14.7997 0.775043 14.7022C0.775635 14.7022 0.776226 14.7022 0.776817 14.7022C0.738684 14.6444 0.823988 13.2857 1.08831 13.4764ZM146.824 11.66C146.607 9.90537 146.544 12.6929 146.13 11.2402C145.604 13.3569 147.618 11.231 147.875 13.0145C145.672 12.8211 149.34 14.7739 147.787 12.1116C149.059 13.0734 148.2 11.7781 148.393 11.4364C148.599 11.0723 149.318 11.4619 149.278 10.8081C149.277 10.8081 149.277 10.8081 149.276 10.8081C148.839 10.8567 148.401 10.9053 147.963 10.9538C148.401 12.362 147.503 11.9446 147.192 10.797C147.07 11.0847 146.947 11.3723 146.824 11.66ZM149.311 12.9687C149.267 12.9367 148.316 13.1405 148.379 13.4233C148.508 13.6031 149.858 13.3779 149.311 12.9687ZM153.501 12.6338C153.159 12.6325 152.628 12.3606 152.445 12.8938C152.788 12.8952 153.318 13.1672 153.501 12.6338ZM135.889 12.6452C135.456 13.0845 136.799 13.2053 136.407 12.6907C136.388 12.6665 135.91 12.6247 135.889 12.6452ZM145.834 11.9318C145.387 11.398 145.608 13.1047 145.933 12.6575C145.952 12.6312 145.854 11.9562 145.834 11.9318ZM1.75514 13.2646C1.78212 12.8459 2.98028 13.1322 3.19231 13.1272C3.07431 13.517 1.72418 13.7445 1.75514 13.2646ZM154.093 11.0643C153.403 9.56392 152.49 11.3079 152.389 11.2705C152.288 11.2325 152.442 10.5737 152.419 10.5562C152.366 10.5196 151.294 10.5816 151.242 10.6278C151.206 10.6637 151.405 11.5868 151.186 11.8794C151.614 11.3514 153.577 11.6675 153.678 11.5644C153.756 11.4821 153.156 10.5152 154.092 11.0643C154.092 11.0643 154.093 11.0643 154.093 11.0643ZM152.135 11.0707C152.405 11.4565 151.654 11.5097 151.471 11.3679C151.065 11.0505 152.1 11.025 152.135 11.0707ZM150.325 10.7252C150.239 10.6388 149.464 10.5648 149.401 10.9966C149.771 11.5538 150.521 10.9264 150.325 10.7252ZM141.71 10.838C141.509 10.8946 140.954 10.5666 140.924 10.9437C141.125 10.8875 141.68 11.2152 141.71 10.838ZM5.81579 9.94872C5.47969 9.63545 6.25292 9.50168 6.4797 9.65151C6.49356 9.90287 5.84441 9.97563 5.81579 9.94872ZM145.736 8.3281C145.616 8.21424 143.189 8.51573 142.849 8.69441C143.184 8.97733 145.592 8.98392 145.7 8.8441C145.732 8.80225 145.751 8.34604 145.736 8.3281ZM150.988 8.12068C151.207 7.5642 151.357 8.229 151.385 8.23718C151.661 8.32036 152.231 8.19157 152.11 8.72698C151.622 8.51438 150.552 9.22579 150.988 8.12068ZM141.521 8.32748C140.697 8.53872 142.285 9.11341 142.074 8.53454C142.06 8.49955 141.606 8.30531 141.521 8.32748ZM146.006 8.16462C146.185 7.71495 148.618 8.08628 149.008 8.08447C148.663 8.91396 148.378 8.28739 147.909 8.33257C147.782 8.34574 147.818 8.68968 147.805 8.69031C147.585 8.70765 147.747 8.30911 147.612 8.30394C147.526 8.30176 145.754 8.79819 146.006 8.16462ZM151.113 7.73535C151.247 7.41629 152.763 7.27099 152.825 7.35516C153.285 7.98115 151.231 7.84537 151.113 7.73535ZM145.779 7.43056C146.034 6.46745 147.245 7.10364 146.422 7.58821C146.343 7.63232 146.006 7.21767 145.779 7.43056ZM141.603 7.41137C141.562 7.38336 140.701 7.19665 140.688 7.50266C140.813 7.62074 142.067 7.71942 141.603 7.41137ZM142.042 6.37397C142.022 6.38144 142.227 6.96934 141.823 6.89724C141.79 6.89043 141.723 6.22794 141.218 6.47383C141.115 6.52446 140.959 6.964 140.97 6.99119C141.505 8.02812 143.081 6.02556 142.042 6.37397ZM151.137 7.19805C151.054 6.91877 151.246 6.08703 151.426 6.50647C151.504 6.68759 151.364 7.18689 151.137 7.19805ZM138.875 7.16018C139.371 6.65334 137.801 6.56811 137.722 6.69753C137.774 7.01093 138.825 7.20969 138.875 7.16018ZM6.57329 6.05573C6.57289 6.05573 6.5725 6.05573 6.57211 6.05574C6.99336 6.16718 6.73556 6.58783 6.75533 6.60087C7.655 7.21058 7.41137 6.2631 7.55072 6.15022C7.84954 5.9061 7.80849 7.06044 8.3121 6.57875C7.47912 7.29065 8.23955 6.98959 8.26588 7.40001C8.37041 9.07491 7.14585 6.62257 6.73053 6.97641C6.67265 7.02541 7.10562 7.55741 6.95753 7.71049C6.47603 8.20649 4.95686 5.62958 6.57329 6.05573ZM151.563 6.43235C151.755 5.93897 153.238 6.40688 152.848 6.81482C152.785 6.88023 151.281 7.15152 151.563 6.43235ZM82.4316 6.14632C82.7846 5.71815 81.9571 5.2227 81.8064 5.55518C81.7317 5.72081 82.2766 6.33424 82.4316 6.14632ZM76.6409 4.3612C76.2188 4.45035 75.7846 6.2293 76.3086 5.95032C76.3643 5.91984 76.6909 4.60726 76.6409 4.3612ZM104.397 5.09694C103.951 4.46502 103.985 5.64418 104.309 5.62548C104.423 5.61907 104.411 5.11693 104.397 5.09694ZM87.5556 5.3568C87.5112 5.31592 87.0015 5.39447 87.0218 5.6654C87.2114 5.82682 87.843 5.63757 87.5556 5.3568ZM104.536 4.9282C104.275 5.14241 104.731 5.99252 105.046 5.15689C104.884 5.22631 104.562 4.90631 104.536 4.9282ZM144.85 4.83012C144.634 5.31577 144.013 5.17339 143.658 5.25888C143.615 4.63174 144.597 4.94548 144.85 4.83012ZM78.4394 5.0639C78.0421 5.50862 78.9015 5.86517 78.8192 5.28122C78.8081 5.24954 78.455 5.04494 78.4394 5.0639ZM118.632 4.77432C118.344 5.15042 119.27 5.64783 119.012 4.99164C118.999 4.9649 118.648 4.7534 118.632 4.77432ZM122.665 4.96532C122.444 4.84048 121.503 4.88531 121.872 5.2481C121.929 5.30384 122.651 5.30821 122.665 4.96532ZM7.57268 5.69839C7.4497 5.05467 8.14069 5.20369 8.24019 5.3157C8.2793 5.3623 7.73307 6.53591 7.57268 5.69839ZM101.53 5.01448C101.302 5.09657 100.709 4.94711 100.607 5.28588C100.886 5.21412 101.609 5.68752 101.53 5.01448ZM80.2634 5.04923C79.9106 4.35113 79.3158 4.42404 79.4688 5.33812C80.1259 5.27261 79.3823 4.51619 80.2634 5.04923ZM106.001 4.16503C105.818 4.11278 105.683 4.99241 105.704 5.03367C105.905 5.42629 106.185 4.50577 106.001 4.16503ZM92.2664 4.97583C92.2535 4.60037 91.6676 4.77455 91.7475 5.01575C91.7738 5.09673 92.2769 5.27967 92.2664 4.97583ZM137.162 4.66545C136.891 4.3244 137.71 3.98406 137.956 4.38267C138.077 4.95851 137.196 4.70461 137.162 4.66545ZM111.08 4.35242C111.104 3.79495 110.189 4.11588 110.553 4.57552C110.644 4.69053 111.072 4.53883 111.08 4.35242ZM119.858 3.62814C119.247 4.29664 121.834 4.752 121.15 3.92816C121.101 3.86946 119.911 3.57168 119.858 3.62814ZM124.081 4.01631C123.974 3.94376 124.015 2.07074 124.459 2.79007C124.517 2.88336 124.251 3.38011 124.299 3.49304C124.327 3.55739 125.284 3.81431 125.327 3.77032C125.374 3.72037 125.315 3.12052 125.362 3.05289C125.416 2.9773 126.008 3.50081 126.316 3.5046C126.896 3.5108 126.956 3.01082 127.003 3.00887C127.142 3.00467 127.377 3.3579 127.658 3.35567C129.075 3.34266 131.239 2.90539 132.369 3.95741C131.367 3.53844 130.417 3.99579 129.423 4.14098C129.708 3.09633 127.965 4.95377 128.984 3.74397C128.513 4.00798 124.43 4.24273 124.082 4.0163C124.082 4.0163 124.081 4.0163 124.081 4.01631ZM74.9695 3.84691C75.2251 3.20586 73.8939 3.35818 73.7856 4.09861C73.9621 4.20014 74.9378 3.91959 74.9695 3.84691ZM81.1054 2.24829C81.2284 2.13713 81.3378 0.886579 81.9906 1.51629C81.9912 1.51629 81.9918 1.51628 81.9924 1.51628C82.1832 1.70018 81.969 2.00609 82.0045 2.11438C82.0174 2.15861 82.6129 2.77656 82.1223 2.87967C81.374 3.03784 82.0458 1.95034 81.6462 1.93965C81.5974 1.93894 80.8455 2.62027 80.8905 2.76849C80.8951 2.78576 81.1217 2.6412 81.1597 2.70268C81.3031 2.9338 81.2365 3.32453 81.2566 3.34297C81.3224 3.39015 82.5138 2.71763 82.6914 3.29721C82.7491 3.4841 80.7893 3.92856 80.7122 3.8317C80.6634 3.77066 80.6769 2.68718 80.6262 2.58095C80.6 2.52805 79.8132 2.93904 79.7101 2.8401C79.6802 2.81148 79.6572 2.78057 79.6404 2.75509C79.762 3.0895 79.0469 3.06992 79.0664 2.6916C79.0779 2.54288 79.5705 2.62578 79.5883 2.65165C79.5961 2.6626 79.6029 2.67772 79.6092 2.68814C79.5047 2.28032 81.1708 2.28813 80.8073 1.68253C81.2881 1.34644 80.7445 2.57473 81.1054 2.24829ZM83.4225 1.56516C83.3733 1.67941 83.3242 1.79366 83.275 1.90791C84.1187 1.62366 85.0978 2.16591 86.0717 2.15562C86.3188 2.15384 86.0301 1.45884 86.3553 1.64719C86.6157 1.79813 86.9071 2.44261 86.7669 2.58762C86.7327 2.62379 86.2017 2.2062 85.9375 2.25108C85.1576 2.38395 85.3587 2.98025 85.3131 2.99668C85.2629 3.01399 84.7688 2.59689 84.5006 2.61731C83.8263 2.66998 83.5205 3.03881 82.5957 2.56535C83.1251 2.16814 82.8283 1.31445 83.4225 1.56516ZM114.944 2.63704C114.974 2.26072 115.529 2.59089 115.73 2.53437C115.701 2.91162 115.145 2.58049 114.944 2.63704ZM32.4952 2.67388C32.3292 3.29217 33.6038 3.43688 33.2649 2.92534C33.1899 2.81181 32.6553 2.67725 32.4952 2.67388ZM38.2194 3.01281C38.3887 2.84109 37.6998 2.40108 37.7041 2.87876C37.7061 3.03193 38.1976 3.03514 38.2194 3.01281ZM94.355 2.10286C94.3871 2.08333 94.8566 2.21781 94.8715 2.24911C95.1862 2.90248 93.6411 2.53353 94.355 2.10286ZM45.1704 2.2086C44.5791 2.61693 46.3677 2.78089 45.8182 2.26857C45.7909 2.24362 45.1988 2.18876 45.1704 2.2086ZM47.6542 2.07986C47.512 2.10245 46.8786 1.90561 46.8714 2.094C46.8608 2.39793 47.5857 2.60093 47.6542 2.07986ZM106.11 1.83266C106.037 1.13768 106.874 1.65901 107.163 1.56959C107.237 2.26506 106.399 1.74299 106.11 1.83266ZM100.845 1.35347C104.356 0.782879 103.591 2.27362 100.638 1.69356C100.631 1.24745 100.623 1.38941 100.845 1.35347ZM105.346 1.40721C105.221 1.85353 104.821 1.72397 104.551 1.68999C104.598 1.37994 105.152 1.48851 105.346 1.40721ZM30.9725 1.72833C31.1893 1.16414 32.1698 1.85174 31.9977 2.08497C31.9576 2.13536 30.8935 2.03833 30.9725 1.72833ZM94.6456 1.50588C94.5595 0.830079 95.6165 1.09923 95.6983 1.24892C96.0278 1.85099 94.7302 1.35606 94.6456 1.50588ZM111.094 1.20579C111.277 0.674847 111.808 0.94395 112.149 0.948812C111.997 1.40278 111.383 1.21348 111.094 1.20579ZM108.634 0.806391C108.656 0.785923 109.131 0.830727 109.152 0.854979C109.544 1.36992 108.2 1.24597 108.634 0.806391ZM5.95788 0.972075C5.97359 0.9549 6.33334 0.986389 6.34599 1.00623C6.67014 1.51279 5.59041 1.41574 5.95788 0.972075Z" fill="url(#paint0_linear_2237_1000)" fill-opacity="0.5"/>
<defs>
<linearGradient id="paint0_linear_2237_1000" x1="1.00318" y1="51.5" x2="156.003" y2="50.5127" gradientUnits="userSpaceOnUse">
<stop stop-color="#2EE1FF"/>
<stop offset="0.56" stop-color="#FED972"/>
<stop offset="1" stop-color="#FBCB04"/>
</linearGradient>
</defs>
</svg>
